<?xml version="1.0" encoding="utf-8"?>
<!-- Generator: Adobe Illustrator 23.0.1, SVG Export Plug-In . SVG Version: 6.00 Build 0)  -->
<svg version="1.1" xmlns="http://www.w3.org/2000/svg" xmlns:xlink="http://www.w3.org/1999/xlink" x="0px" y="0px"
	 viewBox="0 0 1280 800" style="enable-background:new 0 0 1280 800;" xml:space="preserve">
<style type="text/css">
	.st0{fill:#622F0B;}
	.st1{fill:#231F20;}
	.st2{fill:#3E312B;}
	.st3{fill:#322620;}
	.st4{fill:#FBDE93;}
	.st5{fill:#EDC582;}
	.st6{fill:#FFFFFF;}
	.st7{fill:#FCFFFD;}
	.st8{fill:#D2D6E5;}
	.st9{fill:#291C16;}
	.st10{fill:#F9C980;}
	.st11{fill:url(#SVGID_1_);}
	.st12{fill:url(#SVGID_2_);}
	.st13{fill:#4C3D37;}
	.st14{fill:#231606;}
	.st15{fill:#2D2218;}
	.st16{fill:url(#SVGID_3_);}
	.st17{fill:#3A3638;}
	.st18{fill:#2040C6;stroke:#000000;stroke-miterlimit:10;}
	.st19{font-family:'Algerian';}
	.st20{font-size:62.5958px;}
	.st21{fill:#737373;}
	.st22{fill:#EB9E37;}
	.st23{fill:#404040;}
	.st24{fill:#FAD140;}
</style>
<g id="Layer_6">
</g>
<g id="Layer_1">
	<g id="Layer_5">
	</g>
</g>
<g id="Layer_2">
</g>
<g id="Layer_3">
</g>
<g id="Layer_4">
	<g>
		<ellipse class="st0" cx="582.69" cy="589.27" rx="111.69" ry="34.73"/>
		<g>
			<g>
				<path class="st1" d="M581.15,586.75c-0.08-0.2-7.79-19.9-3.81-33.2c0.23-0.75-0.2-1.53-1.08-1.99
					c-0.88-0.46-2.07-0.52-3.04-0.15c-0.52,0.2-12.95,4.82-24.4-2.02c-0.88-0.53-2.13-0.62-3.16-0.24
					c-1.02,0.38-1.61,1.16-1.48,1.97c0.49,3.01,2.72,15.85,6.25,22.86c-8.42-0.71-23.95-1.16-30.9,4.12
					c-3.46,2.63-4.32,6.2-2.55,10.6c0.21,0.55,2.99,7.2,13.39,9.99c2.98,0.8,6.24,1.2,9.79,1.2c10.76,0,24.1-3.67,39.83-10.96
					C581.01,588.46,581.48,587.58,581.15,586.75z"/>
				<path class="st1" d="M657.82,578.1c-6.95-5.28-22.48-4.83-30.9-4.12c3.54-7.01,5.77-19.84,6.25-22.86
					c0.13-0.81-0.46-1.59-1.48-1.97c-1.02-0.38-2.28-0.28-3.16,0.24c-11.45,6.84-23.88,2.22-24.4,2.02
					c-0.97-0.37-2.16-0.31-3.04,0.15c-0.88,0.46-1.31,1.24-1.08,1.99c3.98,13.3-3.73,33.01-3.81,33.2c-0.33,0.82,0.14,1.7,1.16,2.18
					c15.73,7.29,29.07,10.96,39.83,10.96c3.55,0,6.81-0.4,9.79-1.2c10.4-2.79,13.18-9.43,13.39-9.99
					C662.14,584.3,661.28,580.73,657.82,578.1z"/>
				<g>
					<path class="st2" d="M588.48,499.26c-0.42-0.53-1.24-0.85-2.09-0.83c-0.21,0-20.55,0.28-44.9-6.38
						c-0.7-0.19-1.48-0.13-2.11,0.15c-0.63,0.28-1.02,0.76-1.06,1.29c-0.02,0.35-2.46,53.11,4.46,79.25
						c0.93,3.52,4.46,6.44,9.21,7.62c2.57,0.64,5.99,1.22,9.88,1.22c2.67,0,5.58-0.27,8.59-0.99c4.7-1.12,7.79-4.23,7.69-7.74
						c-0.47-15.64,1.15-62.08,10.26-71.9C588.87,500.43,588.9,499.78,588.48,499.26z"/>
					<path class="st3" d="M541.48,567.24c0.39,1.87,0.82,3.7,1.29,5.49c0.94,3.52,4.46,6.44,9.21,7.62
						c2.57,0.64,5.99,1.22,9.88,1.22c2.68,0,5.58-0.27,8.59-0.99c4.7-1.12,7.79-4.23,7.69-7.74c-0.03-1.1-0.06-2.27-0.07-3.49
						c-1.52,1.71-3.86,3.04-6.72,3.72c-3.42,0.81-6.7,1.12-9.73,1.12c-4.41,0-8.28-0.66-11.19-1.38
						C546.51,571.84,543.32,569.81,541.48,567.24z"/>
					<g>
						<path class="st2" d="M637.89,493.48c-0.04-0.52-0.43-1-1.06-1.29c-0.63-0.28-1.41-0.34-2.11-0.15
							c-24.35,6.65-44.7,6.38-44.9,6.38c-0.85-0.01-1.67,0.31-2.09,0.83c-0.42,0.53-0.39,1.17,0.08,1.68
							c9.1,9.82,10.73,56.26,10.26,71.9c-0.11,3.51,2.98,6.62,7.69,7.74c3.01,0.72,5.92,0.99,8.59,0.99c3.9,0,7.31-0.58,9.88-1.22
							c4.75-1.18,8.28-4.1,9.21-7.62C640.35,546.59,637.91,493.84,637.89,493.48z"/>
						<path class="st3" d="M634.73,567.24c-0.39,1.87-0.82,3.7-1.29,5.49c-0.94,3.52-4.46,6.44-9.21,7.62
							c-2.57,0.64-5.99,1.22-9.88,1.22c-2.68,0-5.58-0.27-8.59-0.99c-4.7-1.12-7.79-4.23-7.69-7.74c0.03-1.1,0.06-2.27,0.07-3.49
							c1.52,1.71,3.86,3.04,6.72,3.72c3.42,0.81,6.7,1.12,9.73,1.12c4.41,0,8.28-0.66,11.19-1.38
							C629.7,571.84,632.89,569.81,634.73,567.24z"/>
					</g>
				</g>
			</g>
			<g>
				<g>
					<path class="st4" d="M535.23,435.89l-2.89-0.12c-7.76-0.32-20.78-5.11-20.91-5.15l-2.19-0.81l-1.02,1.58
						c-10.34,16.12-12.09,39.71-12.17,52.88c-4.64,2.55-7.45,6.44-7.58,10.58c-0.25,7.63,8.42,13.98,19.33,14.15l1.86,0.03
						c10.9,0.17,19.97-5.9,20.22-13.52c0.13-4.11-2.39-8.07-6.8-10.76c0.25-19.26,11.26-46.63,11.37-46.91L535.23,435.89z"/>
					<g>
						<path class="st5" d="M666.65,507.86c-1.2,0.16-2.44,0.25-3.71,0.25h-1.86c-10.9,0-19.78-6.21-19.78-13.84
							c0-4.11,2.65-8.03,7.14-10.65c0.38-19.26-9.76-46.79-9.86-47.07l-0.73-1.96l2.89-0.07c7.77-0.2,20.94-4.77,21.07-4.82
							l2.22-0.78l0.96,1.6c0.02,0.04,0.05,0.08,0.07,0.12c-4.49,1.38-12.23,3.53-17.5,3.66l-2.89,0.07l0.73,1.96
							c0.1,0.28,10.23,27.82,9.86,47.07c-4.49,2.62-7.14,6.54-7.14,10.65C648.13,501.39,656.33,507.41,666.65,507.86z"/>
					</g>
					<g>
						<path class="st5" d="M504.55,508.7c1.19,0.18,2.43,0.29,3.7,0.31l1.86,0.03c10.9,0.17,19.97-5.9,20.22-13.52
							c0.13-4.11-2.39-8.07-6.8-10.76c0.24-19.26,11.26-46.63,11.37-46.91l0.79-1.95l-2.89-0.12c-7.76-0.32-20.78-5.1-20.91-5.15
							l-2.19-0.81l-1.01,1.58c-0.02,0.04-0.05,0.08-0.07,0.12c4.44,1.45,12.12,3.72,17.38,3.94l2.89,0.12l-0.79,1.95
							c-0.11,0.28-11.12,27.65-11.37,46.91c4.41,2.69,6.93,6.65,6.8,10.76C523.27,502.52,514.89,508.41,504.55,508.7z"/>
					</g>
				</g>
				<path class="st6" d="M573.19,395.93c-11.2,2.22-43.11,9.1-50.72,16.6c-0.07,0.07-7.5,7.63-11.43,16.8
					c-1.13-0.31-2.07-0.57-2.81-0.78c3.76-9.7,11.83-17.91,11.91-17.98c7.93-7.82,42.24-14.95,52.02-16.86
					C572.38,394.49,572.73,395.23,573.19,395.93z"/>
				<g>
					<path class="st7" d="M658.87,428.96c-3.84-9.91-11.91-18.15-12.27-18.51c-6.36-6.26-23.75-12.82-45.39-17.11
						c-0.61-0.12-1.26-0.06-1.81,0.16c-0.55,0.22-0.94,0.59-1.09,1.02c-1.36,3.93-6.34,6.67-12.11,6.67
						c-5.9,0-11.03-2.93-12.21-6.97c-0.13-0.44-0.51-0.83-1.07-1.06c-0.55-0.24-1.22-0.3-1.84-0.18c-7.62,1.48-37.88,8.8-46.71,17.5
						c-0.08,0.08-8.38,8.54-12.24,18.48c-0.31,0.8,0.28,1.63,1.38,1.94c3.08,0.87,11.07,3.06,21.04,5.42l-6.21,48.61
						c-0.81,5.28,3.9,10.2,11.19,11.68c1.93,0.39,3.88,0.81,5.95,1.25c11.28,2.41,24.06,5.14,38.75,5.29c0.06,0,0.13,0.01,0.19,0.01
						c0.18,0,0.35,0,0.53,0l0.25,0l0.27,0c0.13,0,0.27,0,0.4,0c0.11,0,0.22,0,0.32-0.01c14.96-0.16,28.21-2.96,39.9-5.43
						c1.83-0.39,3.62-0.76,5.35-1.12c7.29-1.49,12-6.4,11.19-11.68l-6.21-48.61c9.98-2.36,17.96-4.55,21.04-5.42
						C658.59,430.59,659.18,429.76,658.87,428.96z"/>
					<path class="st8" d="M631.9,495.13c-1.74,0.35-3.52,0.73-5.35,1.12c-11.69,2.47-24.94,5.27-39.9,5.43
						c-0.11,0.01-0.21,0.01-0.32,0.01h-1.45c-0.07,0-0.13,0-0.2-0.01c-14.68-0.15-27.46-2.88-38.75-5.29
						c-2.07-0.44-4.02-0.86-5.95-1.25c-7.29-1.49-12-6.4-11.19-11.68l0.76-5.92c1.61,3.28,5.4,5.94,10.43,6.97
						c1.93,0.39,3.88,0.81,5.95,1.25c11.28,2.41,24.07,5.14,38.75,5.3c0.07,0,0.13,0.01,0.2,0.01c0.18,0,0.35,0,0.53,0h0.52
						c0.13,0,0.27,0,0.4,0c0.11,0,0.21,0,0.32-0.01c14.96-0.16,28.21-2.96,39.9-5.43c1.83-0.39,3.62-0.77,5.35-1.12
						c5.03-1.03,8.83-3.68,10.43-6.97l0.76,5.92C643.9,488.72,639.19,493.64,631.9,495.13z"/>
				</g>
				<path class="st7" d="M554.77,408.66c-5.24-4.7-15.1-7.61-25.3-3.51c-4.54,1.83-7.46,3.5-8.91,5.13l-2.29,2.57l0.25,0.11
					c-3.04,4.05-8.87,12.08-12.38,18.55c-1.47,2.71-0.39,5.82,2.69,7.73c4.33,2.69,13.79,7.41,28.49,8.76
					c0.28,0.03,0.56,0.04,0.83,0.04c2.75,0,5.19-1.25,5.99-3.14c3.94-9.28,7.24-16.04,8.73-17.87c0.16-0.1,0.36-0.24,0.6-0.42
					C561.61,420.71,559.99,413.34,554.77,408.66z"/>
				<path class="st8" d="M508.8,439.24c4.33,2.69,13.79,7.42,28.5,8.76c0.28,0.03,0.55,0.04,0.83,0.04c2.75,0,5.19-1.25,5.99-3.15
					c0.28-0.66,0.56-1.31,0.83-1.94c-0.86,0.29-1.81,0.45-2.82,0.45c-0.28,0-0.57-0.01-0.86-0.04c-15.18-1.39-24.95-6.26-29.42-9.04
					c-2.97-1.85-4.14-4.77-3.03-7.43c-0.99,1.57-1.91,3.13-2.71,4.61C504.64,434.22,505.72,437.33,508.8,439.24z"/>
				<path class="st9" d="M552.91,393.72c0,0-27.83,4.84-41.03,23.58c0,0-18.68,20.68-18.18,66.23c0,0,14.85,6.85,35.56,0.41
					c0,0-1.87-45.92,16.14-49.7C545.4,434.26,571.47,416.97,552.91,393.72z"/>
				<path class="st4" d="M588.5,398.62c-0.6,0.08-1.22,0.12-1.86,0.12c-5.58,0-10.13-3.18-10.13-7.09v-12.79
					c1.22,0.06,2.48,0.12,3.72,0.16v12.64C580.24,395.12,583.8,398.01,588.5,398.62z"/>
				<path class="st4" d="M599.63,375.19v-0.1c-4.01,0.23-8.39,0.41-12.42,0.41c-0.45,0-0.9,0-1.34-0.01
					c-3.78,0.04-7.97-0.1-11.91-0.3v16.21c0,4.95,5.76,8.99,12.84,8.99c0.03,0,0.07,0,0.1,0c0.02,0,0.04,0,0.06,0
					c7.07,0,12.83-4.03,12.83-8.98v-16.21C599.73,375.18,599.68,375.18,599.63,375.19z"/>
				<path class="st10" d="M599.78,386.18v5.21c0,4.95-5.76,8.98-12.83,8.98c-0.02,0-0.04,0-0.06,0c-0.03,0-0.07,0-0.1,0
					c-7.08,0-12.83-4.03-12.83-8.98v-5.21c0,4.95,5.76,8.98,12.83,8.98c0.04,0,0.07,0,0.1,0c0.02,0,0.04,0,0.06,0
					C594.02,395.16,599.78,391.13,599.78,386.18z"/>
				<g>
					<path class="st4" d="M637.86,434.59l2.89-0.07c7.77-0.2,20.94-4.78,21.07-4.82l2.22-0.78l0.96,1.6
						c9.82,16.28,10.81,39.89,10.47,53.05c4.56,2.62,7.24,6.56,7.24,10.7c0,7.63-8.87,13.84-19.78,13.84h-1.86
						c-10.9,0-19.78-6.21-19.78-13.84c0-4.11,2.65-8.03,7.14-10.65c0.37-19.26-9.76-46.79-9.86-47.07L637.86,434.59z"/>
					<g>
						<path class="st5" d="M666.65,507.86c-1.2,0.16-2.44,0.25-3.71,0.25h-1.86c-10.9,0-19.78-6.21-19.78-13.84
							c0-4.11,2.65-8.03,7.14-10.65c0.38-19.26-9.76-46.79-9.86-47.07l-0.73-1.96l2.89-0.07c7.77-0.2,20.94-4.77,21.07-4.82
							l2.22-0.78l0.96,1.6c0.02,0.04,0.05,0.08,0.07,0.12c-4.49,1.38-12.23,3.53-17.5,3.66l-2.89,0.07l0.73,1.96
							c0.1,0.28,10.23,27.82,9.86,47.07c-4.49,2.62-7.14,6.54-7.14,10.65C648.13,501.39,656.33,507.41,666.65,507.86z"/>
					</g>
				</g>
				<path class="st8" d="M585.27,399.48c0,0-3.03,4.56-6.55,7.82c-2,1.86-5.98,1.91-8.08,0.1c-4.6-3.94-12.38-10.78-14.53-13.79
					c0,0,12.41-3.69,17.99-4.12C574.11,389.49,575.35,397.96,585.27,399.48z"/>
				<path class="st8" d="M588.53,399.64c0,0,3.03,4.56,6.55,7.82c2,1.86,5.98,1.91,8.08,0.1c4.6-3.94,12.38-10.78,14.53-13.79
					c0,0-12.41-3.69-17.99-4.12C599.7,389.65,598.46,398.12,588.53,399.64z"/>
				<path class="st7" d="M666.84,431.51c-3.51-6.47-9.34-14.5-12.38-18.55l0.25-0.11l-2.29-2.57c-1.45-1.62-4.36-3.3-8.91-5.13
					c-10.21-4.1-20.06-1.19-25.3,3.51c-5.22,4.68-6.84,12.04,1.29,17.95c0.24,0.17,0.44,0.31,0.6,0.42
					c1.49,1.83,4.8,8.59,8.73,17.87c0.8,1.89,3.25,3.14,5.99,3.14c0.27,0,0.55-0.01,0.83-0.04c14.7-1.35,24.16-6.07,28.49-8.76
					C667.23,437.33,668.31,434.22,666.84,431.51z"/>
				<g>
					<polygon class="st8" points="587.9,498.43 584.64,498.42 585.02,399.72 588.27,399.72 					"/>
				</g>
				<path class="st8" d="M664.15,439.24c-4.33,2.69-13.79,7.42-28.5,8.76c-0.28,0.03-0.55,0.04-0.83,0.04
					c-2.75,0-5.19-1.25-5.99-3.15c-0.28-0.66-0.56-1.31-0.83-1.94c0.86,0.29,1.81,0.45,2.82,0.45c0.28,0,0.57-0.01,0.86-0.04
					c15.18-1.39,24.95-6.26,29.42-9.04c2.97-1.85,4.14-4.77,3.03-7.43c0.99,1.57,1.91,3.13,2.71,4.61
					C668.31,434.22,667.23,437.33,664.15,439.24z"/>
				<path class="st9" d="M619.84,393.72c0,0,27.83,4.84,41.03,23.58c0,0,18.68,20.68,18.18,66.23c0,0-14.85,6.85-35.56,0.41
					c0,0,1.87-45.92-16.14-49.7C627.35,434.26,601.29,416.97,619.84,393.72z"/>
				<g>
					<g>
						<linearGradient id="SVGID_1_" gradientUnits="userSpaceOnUse" x1="583.2485" y1="397.0817" x2="594.3067" y2="408.1399">
							<stop  offset="0" style="stop-color:#ED1E79"/>
							<stop  offset="1" style="stop-color:#662D8C"/>
						</linearGradient>
						<polygon class="st11" points="591.29,398.48 588.78,398.48 586.27,398.48 578.87,401.46 586.27,411.16 588.78,411.16 
							591.29,411.16 598.69,401.46 						"/>
						<linearGradient id="SVGID_2_" gradientUnits="userSpaceOnUse" x1="565.4802" y1="431.9459" x2="612.075" y2="478.5406">
							<stop  offset="0" style="stop-color:#ED1E79"/>
							<stop  offset="1" style="stop-color:#662D8C"/>
						</linearGradient>
						<path class="st12" d="M589.35,501.27l7.7-32.41l-0.69-37.63c-0.05-2.6-0.46-5.17-1.21-7.6l-3.85-12.47h-2.51h-2.51
							l-3.85,12.47c-0.75,2.43-1.16,5-1.21,7.6l-0.69,37.63l7.7,32.41H589.35z"/>
					</g>
				</g>
				<path class="st9" d="M560.24,391.99l11.64,26.35c1.45,3.28,2.19,6.7,2.18,10.14l13.37,27.27l-0.59,48.79
					c0,1.9-2.5,3.32-5.15,2.93c-11.99-1.79-53.6-7.93-52.89-24.03c0.91-20.34,0,0,0,0l-0.1-74.16c-0.01-4.16,3.19-8.01,8.37-10.06
					C545.19,395.99,545.19,395.99,560.24,391.99L560.24,391.99z"/>
				<path class="st13" d="M587.43,455.75c0,0-11.19-28.57-12.63-32.45l-14.56-31.31l-19.67,15.11c-1.25,0.96-0.67,2.51,1.1,2.91
					l16.39,3.73c0.48,0.11,0.45,0.6-0.05,0.67l-10.29,1.55c-2.73,0.41-4.09,2.57-2.67,4.26L587.43,455.75"/>
				<path class="st9" d="M613.05,391.99l-11.64,26.35c-1.45,3.28-2.19,6.7-2.18,10.14l-11.8,27.27l-1.49,48.79
					c0,1.9,2.5,3.32,5.15,2.93c11.99-1.79,54.12-7.93,53.4-24.03c-0.91-20.34,0,0,0,0l0.1-74.16c0.01-4.16-3.19-8.01-8.37-10.06
					C628.1,395.99,628.09,395.99,613.05,391.99L613.05,391.99z"/>
				<path class="st13" d="M587.43,455.75c0,0,9.62-28.57,11.06-32.45l14.56-31.31l19.67,15.11c1.25,0.96,0.67,2.51-1.1,2.91
					l-16.39,3.73c-0.48,0.11-0.45,0.6,0.05,0.67l10.29,1.55c2.73,0.41,4.09,2.57,2.67,4.26L587.43,455.75"/>
				<ellipse class="st13" cx="579.26" cy="461.37" rx="2.73" ry="1.91"/>
				<path class="st13" d="M578.52,477.05c1.45-0.29,2.96,0.3,3.37,1.32s-0.43,2.07-1.88,2.36s-2.96-0.3-3.37-1.32
					C576.22,478.39,577.07,477.33,578.52,477.05z"/>
				<ellipse class="st13" cx="579.26" cy="495.77" rx="2.73" ry="1.91"/>
				<path class="st13" d="M586.98,454.4L586.98,454.4c-0.73,0-1.33,0.42-1.33,0.93v49.96c0,0.51,0.59,0.93,1.33,0.93l0,0
					c0.73,0,1.33-0.42,1.33-0.93v-49.96C588.31,454.81,587.72,454.4,586.98,454.4z"/>
				<path class="st14" d="M585.81,400.25l-1.72-1.31c0,0,20.73-23.51,26.35-10.14c0,0,4.87,15.29-0.03,17.82
					C610.41,406.62,600.67,410.41,585.81,400.25"/>
				<path class="st14" d="M587.48,400.25l1.72-1.31c0,0-20.73-23.51-26.35-10.14c0,0-4.87,15.29,0.03,17.82
					C562.88,406.62,572.61,410.41,587.48,400.25"/>
				<path class="st15" d="M587.28,403.61L587.28,403.61c-2.5,0-4.53-1.42-4.53-3.17v-2.99c0-1.75,2.03-3.17,4.53-3.17l0,0
					c2.5,0,4.53,1.42,4.53,3.17v2.99C591.81,402.19,589.78,403.61,587.28,403.61z"/>
			</g>
			<g>
				<g>
					<path class="st10" d="M646.73,357.27c-3.72,4.5-13.65,11.99-39.96,17.47c-0.73,0.07-3.76,0.35-7.63,0.62c-0.01,0-0.03,0-0.05,0
						c-0.17,0-0.34,0.02-0.5,0.04c-3.95,0.26-8.66,0.49-12.65,0.45h-0.07c-8.16,0.09-19.34-0.96-20.83-1.1
						c-20.83-4.34-31.86-10-37.45-13.98c-2.56-1.82-4.24-3.47-5.32-4.76C528.08,359.44,588.8,381.27,646.73,357.27z"/>
				</g>
			</g>
		</g>
		<g>
			<g>
				
					<linearGradient id="SVGID_3_" gradientUnits="userSpaceOnUse" x1="-58.873" y1="-90.5769" x2="-58.324" y2="-90.5769" gradientTransform="matrix(394 0 0 -394 23667.8887 -35372.2773)">
					<stop  offset="0" style="stop-color:#A7A8AD"/>
					<stop  offset="0.4948" style="stop-color:#A7A8AD"/>
					<stop  offset="0.9286" style="stop-color:#A7A8AD"/>
					<stop  offset="1" style="stop-color:#A7A8AD"/>
				</linearGradient>
				<path class="st16" d="M471.93,368.98V261.07c0-1.15,1.1-2.08,2.45-2.08h211.42c1.35,0,2.45,0.93,2.45,2.08v107.91
					c0,1.15-1.1,2.08-2.45,2.08H474.37C473.02,371.07,471.93,370.13,471.93,368.98z"/>
			</g>
			<g>
				<path class="st1" d="M686.04,368.3c0,0.5-0.47,0.9-1.05,0.9H475.18c-0.58,0-1.05-0.4-1.05-0.9V261.76c0-0.5,0.47-0.9,1.05-0.9
					h209.81c0.58,0,1.05,0.4,1.05,0.9V368.3"/>
			</g>
		</g>
		<rect x="486.73" y="268.57" class="st17" width="188.86" height="82.81"/>
		<text transform="matrix(2.2914 0 0 1 516.3101 327.8438)" class="st18 st19 st20">IQ</text>
		<g>
			<path class="st21" d="M697.6,272.27l-5.07-0.42L684.72,294c0.14-0.02,0.28-0.05,0.43-0.07c0.15-0.03,0.29-0.06,0.44-0.08
				c0.23-0.04,0.47-0.09,0.7-0.14c0.16-0.03,0.32-0.07,0.47-0.1c0.22-0.05,0.44-0.09,0.66-0.15c0.17-0.04,0.33-0.08,0.5-0.12
				c0.21-0.05,0.42-0.1,0.63-0.16c0.18-0.05,0.36-0.1,0.53-0.15c0.19-0.05,0.39-0.11,0.58-0.16c0.2-0.06,0.39-0.12,0.59-0.18
				c0.17-0.05,0.34-0.1,0.52-0.16c0.23-0.08,0.46-0.16,0.69-0.24c0.13-0.05,0.27-0.09,0.4-0.14c0.36-0.13,0.72-0.26,1.08-0.4
				L697.6,272.27z M640.97,222l-1.86,2.68l4.89,7.75c1.15-0.12,2.29-0.19,3.42-0.21L640.97,222z M654.94,244.12l-6-9.5
				c-1.14-0.01-2.3,0.04-3.47,0.13l7.01,11.1l2.56,4.05l12.56,19.89l1.86-2.68l-12.11-19.18L654.94,244.12z"/>
			<path d="M669.23,269.91l-1.64-0.14l-12.56-19.89l-18.59,15.84c2.49,8.73,8.6,16.92,18.27,22.58c0.23,0.14,0.47,0.27,0.71,0.4l0,0
				c0.38,0.22,0.77,0.42,1.15,0.63c0,0,0.01,0,0.01,0c0.38,0.2,0.77,0.4,1.16,0.59c0,0,0.01,0,0.01,0.01
				c0.39,0.19,0.77,0.37,1.16,0.55c0,0,0.01,0,0.01,0.01c0.39,0.18,0.78,0.35,1.17,0.51c0.01,0,0.01,0.01,0.02,0.01
				c0.39,0.16,0.78,0.32,1.17,0.47c0.01,0,0.02,0.01,0.03,0.01c0.39,0.15,0.78,0.3,1.16,0.44c0.01,0,0.02,0.01,0.03,0.01
				c0.39,0.14,0.77,0.27,1.16,0.4c0.02,0,0.03,0.01,0.05,0.02c0.38,0.13,0.77,0.25,1.15,0.36c0.02,0.01,0.04,0.01,0.06,0.02
				c0.38,0.11,0.76,0.22,1.14,0.32c0.02,0.01,0.05,0.01,0.07,0.02c0.38,0.1,0.75,0.2,1.13,0.29c0.03,0.01,0.06,0.01,0.09,0.02
				c0.37,0.09,0.74,0.17,1.12,0.25c0.04,0.01,0.07,0.01,0.11,0.02c0.37,0.08,0.73,0.15,1.1,0.21c0.04,0.01,0.08,0.01,0.13,0.02
				c0.36,0.06,0.72,0.12,1.08,0.18c0.05,0.01,0.1,0.01,0.14,0.02c0.35,0.05,0.71,0.1,1.06,0.15c0.06,0.01,0.11,0.01,0.17,0.02
				c0.35,0.04,0.69,0.08,1.04,0.11c0.06,0.01,0.12,0.01,0.19,0.02c0.34,0.03,0.68,0.06,1.02,0.08c0.07,0.01,0.14,0.01,0.21,0.01
				c0.33,0.02,0.66,0.04,0.99,0.05c0.08,0,0.16,0.01,0.24,0.01c0.32,0.01,0.64,0.02,0.96,0.03c0.09,0,0.17,0,0.26,0
				c0.31,0,0.62,0,0.94,0c0.09,0,0.19,0,0.28-0.01c0.3-0.01,0.6-0.01,0.91-0.02c0.1,0,0.21-0.01,0.31-0.01
				c0.29-0.01,0.58-0.03,0.87-0.05c0.11-0.01,0.22-0.02,0.34-0.03c0.28-0.02,0.56-0.04,0.84-0.07c0.12-0.01,0.24-0.03,0.36-0.04
				c0.27-0.03,0.54-0.06,0.81-0.09c0.13-0.02,0.26-0.03,0.39-0.05c0.26-0.03,0.52-0.07,0.78-0.11c0.14-0.02,0.28-0.04,0.41-0.07
				c0.11-0.02,0.21-0.03,0.32-0.05l0,0l7.81-22.15L669.23,269.91z M718.84,260.47l-21.32-33.76L640.97,222l6.45,10.21
				c3.51-0.09,6.88,0.23,10.05,0.84c7.41,1.42,13.75,4.35,18.49,7.12c0.96,0.56,1.85,1.12,2.68,1.66c2.03-0.79,4.97-0.44,7.61,1.1
				c3.63,2.13,5.29,5.7,3.7,7.99c-1.59,2.29-5.82,2.42-9.45,0.29c-3.51-2.06-5.17-5.46-3.84-7.75c-0.65-0.42-1.35-0.85-2.09-1.28
				c-4.52-2.65-10.57-5.43-17.52-6.76c-2.59-0.49-5.3-0.79-8.11-0.8l6,9.5l2.4,3.8l12.11,19.18l2.22,0.18l21.82,1.82l4.77,0.4
				L726,271.8l0,0L718.84,260.47z"/>
			<path class="st22" d="M678.64,241.83c-0.82-0.54-1.72-1.09-2.68-1.66c-4.74-2.77-11.08-5.7-18.49-7.12
				c-3.17-0.61-6.54-0.93-10.05-0.84c-1.13,0.03-2.27,0.1-3.42,0.21c-2.38,0.24-4.8,0.69-7.27,1.37c0.53,0.7,0.84,1.5,0.91,2.32
				c2.67-0.73,5.28-1.17,7.82-1.37c1.17-0.09,2.33-0.14,3.47-0.13c2.81,0.02,5.52,0.31,8.11,0.8c6.95,1.33,13,4.11,17.52,6.76
				c0.74,0.43,1.43,0.86,2.09,1.28c0.05-0.08,0.09-0.16,0.14-0.24C677.23,242.59,677.87,242.13,678.64,241.83z M629.33,243.5
				c0.91-0.68,1.62-1.86,1.64-3.1c-0.33-0.12-0.66-0.27-0.97-0.45c-1.4-0.82-2.25-2.13-2.42-3.48c-2.53-1.02-5.82-1.18-7.27-0.42
				c-6.17,3.01-10.85,8.11-13.39,14.38c0.97,0.8,1.93,1.6,2.9,2.39c0.85-2.24,1.95-4.35,3.29-6.27c2.46-3.53,5.69-6.47,9.55-8.55
				c0.36-0.19,0.84-0.08,1.07,0.25c0.23,0.33,0.14,0.75-0.22,0.94c-3.65,1.97-6.73,4.75-9.08,8.13c-1.38,1.99-2.51,4.19-3.34,6.54
				c1.07,0.89,2.15,1.78,3.22,2.66c0.93-3.24,2.34-6.22,4.16-8.84c1.96-2.82,4.4-5.22,7.23-7.09c0.33-0.22,0.82-0.15,1.08,0.17
				c0.26,0.31,0.21,0.74-0.13,0.96c-2.68,1.76-5,4.04-6.87,6.74c-1.86,2.68-3.28,5.77-4.17,9.15c0.96,0.79,1.91,1.58,2.87,2.37
				C620.19,253.01,624.02,247.2,629.33,243.5z"/>
			<path class="st23" d="M635.19,257.93c0.1,2.61,0.52,5.23,1.25,7.8l18.59-15.84l-2.56-4.05L635.19,257.93z M698.26,269.49
				l-4.77-0.4l-21.82-1.82l-2.22-0.18l-1.86,2.68l1.64,0.14l23.3,1.94l5.07,0.42l26.54,2.21l1.86-2.68L698.26,269.49z
				 M689.95,250.92c1.59-2.29-0.07-5.86-3.7-7.99c-2.64-1.54-5.58-1.89-7.61-1.1c-0.77,0.3-1.41,0.76-1.84,1.39
				c-0.05,0.08-0.09,0.16-0.14,0.24c-1.33,2.29,0.33,5.7,3.84,7.75C684.13,253.33,688.36,253.2,689.95,250.92z"/>
			<path class="st24" d="M623.73,238.25c-0.23-0.33-0.71-0.44-1.07-0.25c-3.86,2.08-7.1,5.01-9.55,8.55
				c-1.34,1.92-2.44,4.03-3.29,6.27c0.42,0.35,0.85,0.7,1.27,1.05c0.83-2.36,1.96-4.55,3.34-6.54c2.35-3.37,5.42-6.16,9.08-8.13
				C623.87,239,623.97,238.58,623.73,238.25z M626.79,240.76c-0.26-0.31-0.75-0.39-1.08-0.17c-2.84,1.86-5.27,4.27-7.23,7.09
				c-1.82,2.62-3.23,5.6-4.16,8.84c0.44,0.36,0.87,0.72,1.31,1.08c0.89-3.38,2.31-6.47,4.17-9.15c1.87-2.69,4.19-4.97,6.87-6.74
				C627,241.5,627.06,241.07,626.79,240.76z M637.64,236.11c-0.07-0.82-0.38-1.62-0.91-2.32c-0.39-0.52-0.9-0.98-1.53-1.34
				c-2.39-1.4-5.5-0.86-6.94,1.21c-0.6,0.86-0.81,1.84-0.68,2.8c0.17,1.36,1.01,2.66,2.42,3.48c0.31,0.18,0.64,0.33,0.97,0.45
				c2.21,0.78,4.72,0.14,5.97-1.66C637.5,237.93,637.72,237.02,637.64,236.11z"/>
		</g>
	</g>
</g>
</svg>
